<svg xmlns="http://www.w3.org/2000/svg" viewBox="0 0 500 500"><g id="freepik--background-simple--inject-15"><path d="M455.87,357.46c33.77-81.28,38-196.16-20.16-267.51-32.09-39.36-82.6-52.44-130.81-55.37C261.69,32,215.44,33,176.19,53.8,109.65,89,108,172.82,58.17,222.26,18,262.12,1.32,318.92,35.62,393.66s98,91.68,160.74,67.77,91.15-28.9,166.62-16.95c34.69,5.5,59.86-21,75.08-49.48C444.58,382.78,450.56,370.25,455.87,357.46Z" style="fill:#0099FF"></path><path d="M455.87,357.46c33.77-81.28,38-196.16-20.16-267.51-32.09-39.36-82.6-52.44-130.81-55.37C261.69,32,215.44,33,176.19,53.8,109.65,89,108,172.82,58.17,222.26,18,262.12,1.32,318.92,35.62,393.66s98,91.68,160.74,67.77,91.15-28.9,166.62-16.95c34.69,5.5,59.86-21,75.08-49.48C444.58,382.78,450.56,370.25,455.87,357.46Z" style="fill:#fff;opacity:0.7000000000000001"></path></g><g id="freepik--Sun--inject-15"><circle cx="73.31" cy="52.52" r="29" transform="translate(-15.67 67.22) rotate(-45)" style="fill:#0099FF"></circle><circle cx="73.31" cy="52.52" r="29" transform="translate(-15.67 67.22) rotate(-45)" style="fill:#fff;opacity:0.58"></circle><circle cx="73.31" cy="52.52" r="21.41" transform="translate(-15.67 67.22) rotate(-45)" style="fill:#0099FF"></circle></g><g id="freepik--Clouds--inject-15"><g style="opacity:0.30000000000000004"><path d="M445.06,274.87c0-.18,0-.36,0-.56a10,10,0,0,0-5.48-9.44c-7.23-4.2-11.42,0-13.52,3.73s-5.36-2.33-10.48-1.64-4.9,6.3-6.29,9.33-4.43-.94-8.39-.24-4.2,3-4.9,4-7-1.39-10.48.47a14.48,14.48,0,0,0-5.36,5.36h76.43s.93-5.59-2.1-7.69C451.74,276.27,445.58,279.28,445.06,274.87Z" style="fill:none;stroke:#000;stroke-linecap:round;stroke-linejoin:round"></path><path d="M409.58,281.84a1.77,1.77,0,0,0-.71.36c-1,.86-1,1.48-1,1.48" style="fill:none;stroke:#000;stroke-linecap:round;stroke-linejoin:round"></path><path d="M426.46,274.6c-.68,1.49-1.28,3.12-2.68,3.78-2,.93-3.87-1.18-5.72-1.66a2.66,2.66,0,0,0-2.93.9c-.84.95-.85,3.11-1.94,3.71a5,5,0,0,1-2.11.34" style="fill:none;stroke:#000;stroke-linecap:round;stroke-linejoin:round"></path><path d="M449.21,281.49c0-.14-.11-.27-.17-.4-1.47-2.94-5-.58-7.08-1.4-1.9-.73-1.28-3.73-1.53-5.3-.5-3-4.31-5.35-7.29-4.88a9.26,9.26,0,0,0-5.63,3.27" style="fill:none;stroke:#000;stroke-linecap:round;stroke-linejoin:round"></path><path d="M449.82,284.18a12.67,12.67,0,0,0-.26-1.56" style="fill:none;stroke:#000;stroke-linecap:round;stroke-linejoin:round"></path></g><g style="opacity:0.30000000000000004"><path d="M199.58,100.08c0-.39-.07-.81-.08-1.26-.11-9.6-3.67-16.24-12.37-21.29-16.29-9.46-25.75,0-30.48,8.41S144.56,80.68,133,82.26s-11,14.19-14.19,21-10-2.1-18.91-.52-9.46,6.83-11,8.93-15.77-3.15-23.65,1-12.09,12.09-12.09,12.09H225.5s2.1-12.61-4.73-17.34C214.64,103.24,200.76,110,199.58,100.08Z" style="fill:none;stroke:#000;stroke-linecap:round;stroke-linejoin:round"></path><path d="M119.58,115.81a4,4,0,0,0-1.6.8c-2.22,2-2.22,3.34-2.22,3.34" style="fill:none;stroke:#000;stroke-linecap:round;stroke-linejoin:round"></path><path d="M157.65,99.49c-1.54,3.35-2.89,7-6.05,8.51-4.52,2.11-8.74-2.66-12.91-3.73a6,6,0,0,0-6.61,2c-1.88,2.14-1.91,7-4.38,8.38-1.2.67-3,.69-4.74.75" style="fill:none;stroke:#000;stroke-linecap:round;stroke-linejoin:round"></path><path d="M209,115a9.1,9.1,0,0,0-.4-.9c-3.31-6.62-11.14-1.3-16-3.15-4.28-1.65-2.88-8.42-3.45-11.95C188,92.17,179.43,87,172.71,88A20.88,20.88,0,0,0,160,95.38" style="fill:none;stroke:#000;stroke-linecap:round;stroke-linejoin:round"></path><path d="M210.31,121.08a29.82,29.82,0,0,0-.57-3.5" style="fill:none;stroke:#000;stroke-linecap:round;stroke-linejoin:round"></path></g></g><g id="freepik--Sea--inject-15"><path d="M379.86,335.84c29.37.82,73.83,7,81.4,7.66,3.25-9.09,6.14-18.51,8.64-28.17H17.11A151.11,151.11,0,0,0,20,346.15l1.4.17c26.06,3.27,47.95,1.27,86.81,2.38,34,1,128.33-12.86,155.77-11.14S348.89,335,379.86,335.84Z" style="fill:#0099FF"></path></g><g id="freepik--Trees--inject-15"><path d="M278.29,151.72a4.34,4.34,0,0,1,.91,1.36C279.2,153.34,278.76,152.58,278.29,151.72Z" style="fill:#263238"></path><path d="M244.74,211.74a.29.29,0,0,1,0,.09C244.76,211.94,244.75,211.88,244.74,211.74Z" style="fill:#263238"></path><path d="M254,213.93v.17c-.61,1.23-1.05,2.1-1.05,2.1Z" style="fill:#263238"></path><polygon points="270.28 127.38 270.41 126.7 271.16 125.46 270.28 127.38" style="fill:#263238"></polygon><path d="M217,205c.17-.52,0-3.67.35-5.07s.7,0,.7,0l.52-3.32.88,1.4.69-2.27,1.05,5.24v-3.32l1.23,4v-4.2l2.1,4.72.17-6.29,3.32,4.2.18-2.8,1.57,4.54-.35-4.19,2.1,3,.17-4.89,2.1,5.24.18-5.77,1.92,5.07.7-4.89,1.22,4v-4.37s1.23,5.77,1.4,6.29,1.75-5.59,1.75-5.59.35,4.54.7,5.07,2.27-5.42,2.27-5.42l.18,3.14,5.42-7.34a52.89,52.89,0,0,0-3,5.77c-.53,1.57-2.28,4.89-3.33,7.17s-5.42,11.89-5.24,12.94a54,54,0,0,1-.18,5.77l.88-3.68.17,6.65.7-3.5.35-5.59.53,1.57v-5.25l2.44,3.33s-.52-3.5-.52-4,.52.87.52.87v-3.5s1.73,1.41,1.91,2c-.05-.58-.16-2.71-.16-2.71l1.58,1.05.35-4.37,1.22,2.62.52-4,1.4,1.93,1.23-5.25.7,2.8,1.22-4.9v3.5l2.1-2.27-.7,2.09,2.8-2.79-1.58,5.07,3.85-3.5a40.2,40.2,0,0,0-1.4,4.72c0,.49-2.42,5.47-3.85,8.39l-.17,4,1.22-3.32.35,9.27,1.23-11,1.74,8.75.18-8.05,2.62,6.12L260,211.66l3,6.29-1.05-7.17,4,6.3-2.62-6.47,3.85,5.07-3-7.87,3,3.5L264,205.36l3,2.62-2.1-6.29,3.68,6.12s-.7-3.5-1.4-6.29c0-.17-.08-.33-.13-.5-.09-.37-.18-.76-.28-1.15-.59-2.45-1.17-5-1.17-5l1.4-4.37,1.31,2.61,3.88,11.34,7.48,24.11L290,256.41l8.53,29.92,9.27,51.11,4.93-.15c-2.66-14.15-10.22-53.43-14.62-67-5.4-16.63-11.64-34.71-11.64-34.71l-14-38.73,2-3.94-.35,5.77,3-2.62-1.05,6.11,2.28-6.11-2.1,8.74,1.92-4.37-.7,7.34,2.1-8.22-1.4,8.39,1.93-5.94-1.4,7.17,2.44-4.55-1.57,8.39,2.45-6.81-.53,5.94,2.45-7.34-2.8,11.71,3-7.87L282,220.22l3-7.86L283.4,222l2.44-8-.69,12.24,2.09-9.62-.52,12.59,2.45-11.89.17,11.89,1.05-8.57-.17,11.54,1-7,.53,8.39,1.22-3.15s1.93,8.4,1.93,7.87,0-3.67-.18-5.77-.35-6.64-.87-8.22-2.45-5.59-5.77-12.23a121.07,121.07,0,0,1-5.25-12.07V195.4l2.28,5.42.69-3,.53,4.55,1.05-4,.35,5.94,1.4-5.77.35,9.09,1.57-2.27.17,4.2,1.4-7.17,1.4,7.52.18-7,1.05,8.57.52-10,1.75,11.36,1.4-8.22,1.05,9.27.87-7.34V216.9l2.27-8.57.53,7.35,1.92-5.6v7.7l1-5.25v5.94l1.57-6.29.88,7.52-.35-3.85,4.89,3.85-4.19-5.6,4,2.8-2.62-4.54-1.3-2-3.93-6.17-.54-3.51,3.14,5.07-.7-5.59,3.33,6.47-.88-2.1,2.63,2.62s-1.4-5.25-2.1-6.29-5.42-5.25-6.65-6.3-12.59-9.09-12.59-9.09l3,1.4-.53-1.75L296,187l.17-1.74,2.45,1.74.35-1.22,2.1,1.22.65,1.45,1.09,2.4-.35-3.85,1.58,5.25v-3.5l2.62,4,.35-2.44,1.75,4-.35-3.67,3,5.24-.52-2.1,3.84,1.58a39.66,39.66,0,0,0-8.21-7.7c-4.38-2.79-10-3.84-13.12-5.24-2.35-1.05-11.12-2.29-15.42-2.85L275,176.34l6.3,1.92-.88-2.1,4.73,2.45-1.23-2.45s3.5,2.28,4,2.28-1.05-3-1.05-3l5.25,3-3.35-3.05-.5-4.12,5.42,2.8-2.62-4.2,4.55,2.1-2.28-3.32,3.67.69-2.62-2.44,3.15.52-1.05-1.92,3.5,2.1-1.58-1.93,2.28,1.4-.7-1.92,4.72,2.62-1.05-2.1,5.24.7s-5.42-2.27-7.16-3.32c-1.59-1-8.75-.47-10.1-.37l2-.15-.87-1.58,3.5,1.05-3-3,5.6,1.75-2.8-3.5,5.94,1.92-2.79-3.67,6.82,3.67-2.63-3.84,4.37,1.92-2.79-2.62,4.89-.18-2.79-.87.69-2.45s-2.79,1.05-3.49,1.23-5.95,1.92-7,1.92-9.79,6.29-10.84,6.82c-.57.29-6.1,3-11,5.29l-2.13-2.67,4,1.22-3.67-4.37L278,162l-3.32-4.72,1.92.35-.88-2.45,1.93.88L274,150.64l3.14,2.62-.7-3.67s1.08,1.14,1.89,2.13c-.49-.92-1-2-1-2l2.1.7-2.8-3,4.19.35-1.22-2.8,1.22.18S279,142,278.14,141.6c.74.1,2.81.29,2.81.29l-2.27-3.14,3-3.15-6.3,1.57,3.5-3.84-4,2.1,4.9-5.25-5.6,2.27,2.8-3.32-2.1.7,2.1-3.5-3.85,1.75.35-2.27-3.85,2.27.83-1.38.4-2.11-2.62,3.32-1.4-4.37-2.45,1.74,1.23,3,1.39,3.43-3-3.32,2.8,5.07-2.63-1.92,2.45,5.07-3.49-3,3.14,5.24-1.92-1.57,3.15,5.42-2.8-2.27,2.27,4.89-3.32-1.4.52,1.23h-1.39l2.79,1.92-1.92-.35.87,1.75s-1.92.35-1.92.87,2.27.53,3.15,1.23l-2.27,1.92-1.4-.35-.18-1.22-.87.35v-2.8l-1-.88,1-2.09-1.58-.18,2.8-3.5,1.4-3.67-2.27-.17.87-2.45-1.75,1.05,1.4-4.37-2.1,4-.52-3.32,1.4-3.5-2.28,2.62-1.22-2.62-1.4,2.1-.35-2.45-1.57,3v-2.27l-1.22,2.62-1.23-1.57.7,3.85-4.55-3.68-1-2.44-.88.87-1.57-3.15L243,129.48l-1.4-3.15-.17,2.1-1.4-1.75-.35,1.93L236,126.86l3.14,3.15-4.54-1,1.4,1.92-3.85-1,2.62.87h-2.27l2.27,1.4h-3l5.07,1.93-3.5-1.23,3.67,2.1-1.57.18,1.28.6,1.87,2.72-2.1.17-1.86-1-1.29-.72,2.45,2.8-4.72-1.05,1.75,2.1-4.37-.87,3.67,1.75-6.12-.53,5.24,1.22-2.79.35,4.72.35-2.8.88,4.2.17-4,1.58,5.24-.18-3.67,1.92h5.07l-3.67,1.05h5.07l-3.5,2.45,2.8-.52-.39.44-.84,1,3.15-.88-2.62,2.8,2.8-1.22-1.23,4,3.5-1.58-1.75,4.2s-4.89-2.45-5.94-3.15-7.52-4.72-8.75-5.42-6.11-3.15-6.11-3.15l-.53.88,4.72,1.75-5.59.52,5.24,1-3.5.88,4.38-.35-5.42,2.27,3-.35-2.62,1.4h4.37L222,157.11l5.94-1.75-3,2.27,3.15-1.57-1.4,2.27,5.59-1.57-6.12,5.59-1.57,1.05,2.62-.7-1.75,2.1,3,.35-1.93,2.45,3.68-.35-.35,2.27,1.92-.87-.35,3,2.45-2.8-.53,2.62,3-2.45-1.23,4,2.1-1.4-.87,3.84,4.37-5.24-1.58,4.54,2.1-2.27-.17,2.8,3.49-4.55-3.32,5.6,5.6.35-5.6,1.57c-1.22.35-5.42,1.4-8.39,2.1s-12.77,2.1-12.77,2.1l.18,1,.17,3.14L222.2,184s.18,3.67.53,4.2,1.4-1.93,1.4-1.93l.17,2.45,2.27-3,.18,2.62,3.5-3.67-.7,3.85a15,15,0,0,1-2.1,1.4,15.89,15.89,0,0,1-1.58.35l-.17,1-1.92.18.17,1-2.62-.7,1.57.7h-4.19a8.05,8.05,0,0,1-.53,1.92,36.86,36.86,0,0,1-2.62,3.32l-1.75,6.3,2.1-3.67S216.78,205.54,217,205Zm55.8-11.67-.59,2.77-1.65-4.55,1.16-1.23,1.58.69Zm5.14-13.73-2.37-.3-2.8-3Zm-3-12.86-1.93.93-1.07-2Zm-2.37,1.14-2,1-.17-2.15Z" style="fill:#263238"></path><g style="opacity:0.43"><path d="M278.29,151.72a4.34,4.34,0,0,1,.91,1.36C279.2,153.34,278.76,152.58,278.29,151.72Z" style="fill:#fff"></path><path d="M244.74,211.74a.29.29,0,0,1,0,.09C244.76,211.94,244.75,211.88,244.74,211.74Z" style="fill:#fff"></path><path d="M254,213.93v.17c-.61,1.23-1.05,2.1-1.05,2.1Z" style="fill:#fff"></path><polygon points="270.28 127.38 270.41 126.7 271.16 125.46 270.28 127.38" style="fill:#fff"></polygon><path d="M217,205c.17-.52,0-3.67.35-5.07s.7,0,.7,0l.52-3.32.88,1.4.69-2.27,1.05,5.24v-3.32l1.23,4v-4.2l2.1,4.72.17-6.29,3.32,4.2.18-2.8,1.57,4.54-.35-4.19,2.1,3,.17-4.89,2.1,5.24.18-5.77,1.92,5.07.7-4.89,1.22,4v-4.37s1.23,5.77,1.4,6.29,1.75-5.59,1.75-5.59.35,4.54.7,5.07,2.27-5.42,2.27-5.42l.18,3.14,5.42-7.34a52.89,52.89,0,0,0-3,5.77c-.53,1.57-2.28,4.89-3.33,7.17s-5.42,11.89-5.24,12.94a54,54,0,0,1-.18,5.77l.88-3.68.17,6.65.7-3.5.35-5.59.53,1.57v-5.25l2.44,3.33s-.52-3.5-.52-4,.52.87.52.87v-3.5s1.73,1.41,1.91,2c-.05-.58-.16-2.71-.16-2.71l1.58,1.05.35-4.37,1.22,2.62.52-4,1.4,1.93,1.23-5.25.7,2.8,1.22-4.9v3.5l2.1-2.27-.7,2.09,2.8-2.79-1.58,5.07,3.85-3.5a40.2,40.2,0,0,0-1.4,4.72c0,.49-2.42,5.47-3.85,8.39l-.17,4,1.22-3.32.35,9.27,1.23-11,1.74,8.75.18-8.05,2.62,6.12L260,211.66l3,6.29-1.05-7.17,4,6.3-2.62-6.47,3.85,5.07-3-7.87,3,3.5L264,205.36l3,2.62-2.1-6.29,3.68,6.12s-.7-3.5-1.4-6.29c0-.17-.08-.33-.13-.5-.09-.37-.18-.76-.28-1.15-.59-2.45-1.17-5-1.17-5l1.4-4.37,1.31,2.61,3.88,11.34,7.48,24.11L290,256.41l8.53,29.92,9.27,51.11,4.93-.15c-2.66-14.15-10.22-53.43-14.62-67-5.4-16.63-11.64-34.71-11.64-34.71l-14-38.73,2-3.94-.35,5.77,3-2.62-1.05,6.11,2.28-6.11-2.1,8.74,1.92-4.37-.7,7.34,2.1-8.22-1.4,8.39,1.93-5.94-1.4,7.17,2.44-4.55-1.57,8.39,2.45-6.81-.53,5.94,2.45-7.34-2.8,11.71,3-7.87L282,220.22l3-7.86L283.4,222l2.44-8-.69,12.24,2.09-9.62-.52,12.59,2.45-11.89.17,11.89,1.05-8.57-.17,11.54,1-7,.53,8.39,1.22-3.15s1.93,8.4,1.93,7.87,0-3.67-.18-5.77-.35-6.64-.87-8.22-2.45-5.59-5.77-12.23a121.07,121.07,0,0,1-5.25-12.07V195.4l2.28,5.42.69-3,.53,4.55,1.05-4,.35,5.94,1.4-5.77.35,9.09,1.57-2.27.17,4.2,1.4-7.17,1.4,7.52.18-7,1.05,8.57.52-10,1.75,11.36,1.4-8.22,1.05,9.27.87-7.34V216.9l2.27-8.57.53,7.35,1.92-5.6v7.7l1-5.25v5.94l1.57-6.29.88,7.52-.35-3.85,4.89,3.85-4.19-5.6,4,2.8-2.62-4.54-1.3-2-3.93-6.17-.54-3.51,3.14,5.07-.7-5.59,3.33,6.47-.88-2.1,2.63,2.62s-1.4-5.25-2.1-6.29-5.42-5.25-6.65-6.3-12.59-9.09-12.59-9.09l3,1.4-.53-1.75L296,187l.17-1.74,2.45,1.74.35-1.22,2.1,1.22.65,1.45,1.09,2.4-.35-3.85,1.58,5.25v-3.5l2.62,4,.35-2.44,1.75,4-.35-3.67,3,5.24-.52-2.1,3.84,1.58a39.66,39.66,0,0,0-8.21-7.7c-4.38-2.79-10-3.84-13.12-5.24-2.35-1.05-11.12-2.29-15.42-2.85L275,176.34l6.3,1.92-.88-2.1,4.73,2.45-1.23-2.45s3.5,2.28,4,2.28-1.05-3-1.05-3l5.25,3-3.35-3.05-.5-4.12,5.42,2.8-2.62-4.2,4.55,2.1-2.28-3.32,3.67.69-2.62-2.44,3.15.52-1.05-1.92,3.5,2.1-1.58-1.93,2.28,1.4-.7-1.92,4.72,2.62-1.05-2.1,5.24.7s-5.42-2.27-7.16-3.32c-1.59-1-8.75-.47-10.1-.37l2-.15-.87-1.58,3.5,1.05-3-3,5.6,1.75-2.8-3.5,5.94,1.92-2.79-3.67,6.82,3.67-2.63-3.84,4.37,1.92-2.79-2.62,4.89-.18-2.79-.87.69-2.45s-2.79,1.05-3.49,1.23-5.95,1.92-7,1.92-9.79,6.29-10.84,6.82c-.57.29-6.1,3-11,5.29l-2.13-2.67,4,1.22-3.67-4.37L278,162l-3.32-4.72,1.92.35-.88-2.45,1.93.88L274,150.64l3.14,2.62-.7-3.67s1.08,1.14,1.89,2.13c-.49-.92-1-2-1-2l2.1.7-2.8-3,4.19.35-1.22-2.8,1.22.18S279,142,278.14,141.6c.74.1,2.81.29,2.81.29l-2.27-3.14,3-3.15-6.3,1.57,3.5-3.84-4,2.1,4.9-5.25-5.6,2.27,2.8-3.32-2.1.7,2.1-3.5-3.85,1.75.35-2.27-3.85,2.27.83-1.38.4-2.11-2.62,3.32-1.4-4.37-2.45,1.74,1.23,3,1.39,3.43-3-3.32,2.8,5.07-2.63-1.92,2.45,5.07-3.49-3,3.14,5.24-1.92-1.57,3.15,5.42-2.8-2.27,2.27,4.89-3.32-1.4.52,1.23h-1.39l2.79,1.92-1.92-.35.87,1.75s-1.92.35-1.92.87,2.27.53,3.15,1.23l-2.27,1.92-1.4-.35-.18-1.22-.87.35v-2.8l-1-.88,1-2.09-1.58-.18,2.8-3.5,1.4-3.67-2.27-.17.87-2.45-1.75,1.05,1.4-4.37-2.1,4-.52-3.32,1.4-3.5-2.28,2.62-1.22-2.62-1.4,2.1-.35-2.45-1.57,3v-2.27l-1.22,2.62-1.23-1.57.7,3.85-4.55-3.68-1-2.44-.88.87-1.57-3.15L243,129.48l-1.4-3.15-.17,2.1-1.4-1.75-.35,1.93L236,126.86l3.14,3.15-4.54-1,1.4,1.92-3.85-1,2.62.87h-2.27l2.27,1.4h-3l5.07,1.93-3.5-1.23,3.67,2.1-1.57.18,1.28.6,1.87,2.72-2.1.17-1.86-1-1.29-.72,2.45,2.8-4.72-1.05,1.75,2.1-4.37-.87,3.67,1.75-6.12-.53,5.24,1.22-2.79.35,4.72.35-2.8.88,4.2.17-4,1.58,5.24-.18-3.67,1.92h5.07l-3.67,1.05h5.07l-3.5,2.45,2.8-.52-.39.44-.84,1,3.15-.88-2.62,2.8,2.8-1.22-1.23,4,3.5-1.58-1.75,4.2s-4.89-2.45-5.94-3.15-7.52-4.72-8.75-5.42-6.11-3.15-6.11-3.15l-.53.88,4.72,1.75-5.59.52,5.24,1-3.5.88,4.38-.35-5.42,2.27,3-.35-2.62,1.4h4.37L222,157.11l5.94-1.75-3,2.27,3.15-1.57-1.4,2.27,5.59-1.57-6.12,5.59-1.57,1.05,2.62-.7-1.75,2.1,3,.35-1.93,2.45,3.68-.35-.35,2.27,1.92-.87-.35,3,2.45-2.8-.53,2.62,3-2.45-1.23,4,2.1-1.4-.87,3.84,4.37-5.24-1.58,4.54,2.1-2.27-.17,2.8,3.49-4.55-3.32,5.6,5.6.35-5.6,1.57c-1.22.35-5.42,1.4-8.39,2.1s-12.77,2.1-12.77,2.1l.18,1,.17,3.14L222.2,184s.18,3.67.53,4.2,1.4-1.93,1.4-1.93l.17,2.45,2.27-3,.18,2.62,3.5-3.67-.7,3.85a15,15,0,0,1-2.1,1.4,15.89,15.89,0,0,1-1.58.35l-.17,1-1.92.18.17,1-2.62-.7,1.57.7h-4.19a8.05,8.05,0,0,1-.53,1.92,36.86,36.86,0,0,1-2.62,3.32l-1.75,6.3,2.1-3.67S216.78,205.54,217,205Zm55.8-11.67-.59,2.77-1.65-4.55,1.16-1.23,1.58.69Zm5.14-13.73-2.37-.3-2.8-3Zm-3-12.86-1.93.93-1.07-2Zm-2.37,1.14-2,1-.17-2.15Z" style="fill:#fff"></path></g><path d="M321,136.59c-.36.92-.76,1.7-.76,1.7Z" style="fill:#263238"></path><path d="M461.88,114.22l-8.71.11c-1.09,0-8.35-.24-11.26-.57s-7.26.1-8.36-.25-4.74-1.39-7.65-2.07-8,.11-10.89.51-13.38,3.81-13.38,3.81l-1.84-2.15,4.35-.06-1.85-2.88,2.52-1.85,1.35.29,3.38.73-3.32-3.58,6.17-.09L405.45,103l10.14-2.32-4-3.21,3.62-1.14-6.92-1,9-6.66-4-1.76,4.68-3.33-5.08.07s5.13-1.87,7.86-2.49c-1.86,0-4.63-.1-4.63-.1l3.23-2.58-5.45-.29,7.91-5.56L410.53,75.7,420.6,69l-7.24,1.55,4.31-3.69-4-.67,2.15-1.85-5.09-.29-1.48-2.16,7.23-2.28-4,.06,4.67-4.06L411,57.9l7.19-5.54L410.61,55l-1.12-2.52-2.14,2.93-2.19-.7-.69,2.55-3.63.42L402,63.11l2.57,2.5-1.81.39-.69,2.19-2.53,1.49,1.86,2.88-3.25,1.49,2.57,1.78-4,1.87,4,2.13-4.25,8-1.83-1.06-.76-2.53s-1.08,2.11-1.83,4.08c.05-1.66,0-3.33,0-3.33l-1.82-.34,2.48-4.39-3.25,1.13,2.81-6.94-2.17,1.12,1-7.27-3.91,5.5,1.34-7.65-5,4.79.25-8-3.62,1.14-1.54-6.52.11,7.63-2.26-5.78L374.27,53l.47,7.26-7-4.26,7,7.89-5.38,4.79-.08-6.17-2.44,7.3-1.56-7.61-2.05,9.47L362,60l-1.33,8.73-.77-3.26-1.86-3.24-1.17-6.16-1.78,2.57-2.95-2.86L351.47,58l-2.92-1,0,2.18-4-1.4,1.14,3.62-7.23,2.28,4.36-.06L341,65l3.28,1-5.05,2.25,5.45.28,3.27.32-3.24,1.86,5.45.29-4.68,3,11.25-.88-9.41,2.67,10.52-.51L347.4,79.46l9.06-1.57-6.87,2.27,8.74,2.06-8.35.11,8.76,3.51-2.9,0,5.85,3.19-4,.42s1.86,2.88.76,2.17-8.44-6.79-14.28-8.52a23.6,23.6,0,0,0-10.9-.58l4,2.85,8.71.24-2.9.4,4.76,2.84-4,.06,7.67,3.16,2.94,2.5L349.05,94l4.46,7.2L343,102l-4.4-2.84s-20.8-7.71-22.25-7.69-6.14,2.63-6.14,2.63l2.92.68,4-.78-6.83,4.82,6.17.27-1.78,2.57,5.06-1.88.77,3.62,4.68-3.33-.25,8,5-8.42-1.29,12,6.8-7.36-2.06,8.75,6.82-5.91-2.4,10.2-9.42,1.58-9.78,1.59,3.27.32L312.07,125l1.15,4.35,5.22-1.89,4.56-.06-15.18,5.29,6.54.63-.18,1.29L313.7,138l4.29-4.78-1,5.46s2.11-5.11,3.92-5.13c1.09,0,.64,1.67.1,3l1.71-3.78-1.36,6.91.79,4.35,1.14,4,3.87-9.13,1.22,9.42,2.43-7.65.11,8,4.89-14.59,1.8-1.11,1.12,2.52,2.51-2.57,1.53,6.15s1.06-2.55,2.14-2.93.42,3.62.42,3.62l1.43-1.47.41,3.63,3.59-3.32.38,1.45,2.87-2.58-1,3.64-1.06,2.56,8.29-4.47,5.42-1.89s-4.67,3.33-7.19,4.82-6.84,4.45-9,5.93-4.31,3.32-4.31,3.32L335,155.52l4-.06-6.11,4.08,5.81.28s-1.44.75-3.25,1.5,2.2,1.78,2.2,1.78l-5.4,3,4.38,1.76-7.95,2.65,6.14-1.9L328,173l2.89-.4-7.53,6.63L328,177.4l-5.35,7,5.4-3.34-3.2,4.4s-6,10.61-6.73,12.43-3.07,14.93-3.07,14.93,5-6.24,5.71-7.34,2.84-4.76,2.84-4.76l.31-4,1.86,3.24s-.11-8.35.23-9.81,4.08,6.48,4.08,6.48l-.11-8,3.73,7.22-.47-8,2.62,6.14-.11-8.35,3.35,6.13-.12-8.71,2.27,6.14.24-9.08,3.72,7.21-1.2-8.7,2.59,3.6-1.2-7.61,4.07,5-.48-8.71,4.78,5-.09-6.9,7.42-15,7.23-2.27-7.91,5.55,6.86-3-3.21,4.4-1.39,4.38L358,166.82l2.9-.4-3.17,7.67-.47.69-2,3,2.54-.4-5,8.79,9.39-4.12L355,187.56l2.19,1.06-3.93,4.77,8.31-3-7.54,5.92,2.53-1.13-2.82,6.58,3.27.32-4.3,4.05,3.25-1.5-2.49,4-4.29,4.78,2.91.32-1.35,7.64,3.56-5.13,3,4-.08-5.81,1.49,2.88-.06-4.35,3.69,4.3-1.21-9.06,2.46,4.76,1.27,2.45-1.27-13,3.38,8.3L366.45,199l1.53,5.79-.11-8.71,3,9.76.24-9.44-.52-4.45-.71-6.07s4.1,7.94,4.08,6.49c0-.6,0-2.91.06-5.43.05-3.61.12-7.65.12-7.65l1.63-5.16c-.35,13.31-2.88,48.15-4.68,58.27-2,11.14-3.8,35.09-3.8,35.09l-5,68.29q3.59-.06,7-.07c2-31.18,4.45-68.09,4.85-73.87.22-3.07,1-14.08,2-28,.63-1.69,4.33-11.51,6.58-16.18,2.47-5.11,6.06-34.94,6.68-42.93s-2.28-34.1-2.28-34.1l2.55.33s-1.07,1.83.07,5.08l-.33,2.91.41,2.9,4-1.15-2.85,4,4.36.3-2.49,4,4.36.3-3.22,3.31,5.07-.79-5.35,7,5.08-.43-1.06,2.19,4-1.14-4.31,4.05,5.45-.07-3.21,4.4,3.27,0-1.78,2.57,4-.06-2.86,2.95,6.17.28-6.13,3.35,6.21,2.09-2.89,1.49s3.29,1.78,2.21,2.15.41,3.27.41,3.27l6.37,14.8s.28-5.82.94-11.27-3-33-3-33l1.1,5.53.84,4.24.26-7.63,3.42,10.85.26-7.26,1.95,9.41.29-5.45,3.09,13.75,1-6.18,2.27,6.5,1.57,9.06.42-3.48.24-2,3.13,16.66s1-6.18,1.32-9.45-.22-16.34-2.12-22.85-23.65-29.82-23.65-29.82l-9.19-8.59-1.56-8,.66-5.09,1.85,2.51,1.7,5.14.57,1.73-.11-7.62,4.47,7.92,1-8,.44,5.44,1.73-5.83L411,138.14l-.09-6.89,5.88,5-1.18-6.52,5.53,6.1-3.75-8.66,6.23,4.27-2.28-7.6,5.14,4.29L425.32,122l3.6-1.86,1.48,4.23,2.3,6.61.25-8.35,3.75,9-.79-4.71-.47-8,4.84,9-1.16-5.79,7,4.63-4.48-8.66,8,1.71L447,117.32l6.91,1S463,114.2,461.88,114.22Zm-81.63,62.62,2.23-.55-2.38,2.65Q380.17,177.88,380.25,176.84Zm-.48,6.57.63-.19s-.33.62-.72,1.43Zm-.4,5.5a5.37,5.37,0,0,0,1.1-.24l-1.17,1.2C379.32,189.55,379.35,189.23,379.37,188.91Zm-.35,4.86,1.52,0-1.73,2.8ZM376.24,232c.69-9.49,1.46-20.19,2.22-30.58h1.1Zm2.35-32.37c.05-.62.09-1.23.13-1.84l2.24,0Zm1.24-17,.12-1.71,3.67-1Zm3.29-13.2-.62.93-2,3c.62-8.5,1.11-15.15,1.34-18.38l3.47-11s.06,4.36.09,6.17.07,5.81.1,7.62-1.45,0-1.45,0l-.67,4.37L382,165.41l3.63-.41Z" style="fill:#263238"></path><path d="M422.22,81c.42.13-.39.17-1.54.18A4,4,0,0,1,422.22,81Z" style="fill:#263238"></path><g style="opacity:0.43"><path d="M321,136.59c-.36.92-.76,1.7-.76,1.7Z" style="fill:#fff"></path><path d="M461.88,114.22l-8.71.11c-1.09,0-8.35-.24-11.26-.57s-7.26.1-8.36-.25-4.74-1.39-7.65-2.07-8,.11-10.89.51-13.38,3.81-13.38,3.81l-1.84-2.15,4.35-.06-1.85-2.88,2.52-1.85,1.35.29,3.38.73-3.32-3.58,6.17-.09L405.45,103l10.14-2.32-4-3.21,3.62-1.14-6.92-1,9-6.66-4-1.76,4.68-3.33-5.08.07s5.13-1.87,7.86-2.49c-1.86,0-4.63-.1-4.63-.1l3.23-2.58-5.45-.29,7.91-5.56L410.53,75.7,420.6,69l-7.24,1.55,4.31-3.69-4-.67,2.15-1.85-5.09-.29-1.48-2.16,7.23-2.28-4,.06,4.67-4.06L411,57.9l7.19-5.54L410.61,55l-1.12-2.52-2.14,2.93-2.19-.7-.69,2.55-3.63.42L402,63.11l2.57,2.5-1.81.39-.69,2.19-2.53,1.49,1.86,2.88-3.25,1.49,2.57,1.78-4,1.87,4,2.13-4.25,8-1.83-1.06-.76-2.53s-1.08,2.11-1.83,4.08c.05-1.66,0-3.33,0-3.33l-1.82-.34,2.48-4.39-3.25,1.13,2.81-6.94-2.17,1.12,1-7.27-3.91,5.5,1.34-7.65-5,4.79.25-8-3.62,1.14-1.54-6.52.11,7.63-2.26-5.78L374.27,53l.47,7.26-7-4.26,7,7.89-5.38,4.79-.08-6.17-2.44,7.3-1.56-7.61-2.05,9.47L362,60l-1.33,8.73-.77-3.26-1.86-3.24-1.17-6.16-1.78,2.57-2.95-2.86L351.47,58l-2.92-1,0,2.18-4-1.4,1.14,3.62-7.23,2.28,4.36-.06L341,65l3.28,1-5.05,2.25,5.45.28,3.27.32-3.24,1.86,5.45.29-4.68,3,11.25-.88-9.41,2.67,10.52-.51L347.4,79.46l9.06-1.57-6.87,2.27,8.74,2.06-8.35.11,8.76,3.51-2.9,0,5.85,3.19-4,.42s1.86,2.88.76,2.17-8.44-6.79-14.28-8.52a23.6,23.6,0,0,0-10.9-.58l4,2.85,8.71.24-2.9.4,4.76,2.84-4,.06,7.67,3.16,2.94,2.5L349.05,94l4.46,7.2L343,102l-4.4-2.84s-20.8-7.71-22.25-7.69-6.14,2.63-6.14,2.63l2.92.68,4-.78-6.83,4.82,6.17.27-1.78,2.57,5.06-1.88.77,3.62,4.68-3.33-.25,8,5-8.42-1.29,12,6.8-7.36-2.06,8.75,6.82-5.91-2.4,10.2-9.42,1.58-9.78,1.59,3.27.32L312.07,125l1.15,4.35,5.22-1.89,4.56-.06-15.18,5.29,6.54.63-.18,1.29L313.7,138l4.29-4.78-1,5.46s2.11-5.11,3.92-5.13c1.09,0,.64,1.67.1,3l1.71-3.78-1.36,6.91.79,4.35,1.14,4,3.87-9.13,1.22,9.42,2.43-7.65.11,8,4.89-14.59,1.8-1.11,1.12,2.52,2.51-2.57,1.53,6.15s1.06-2.55,2.14-2.93.42,3.62.42,3.62l1.43-1.47.41,3.63,3.59-3.32.38,1.45,2.87-2.58-1,3.64-1.06,2.56,8.29-4.47,5.42-1.89s-4.67,3.33-7.19,4.82-6.84,4.45-9,5.93-4.31,3.32-4.31,3.32L335,155.52l4-.06-6.11,4.08,5.81.28s-1.44.75-3.25,1.5,2.2,1.78,2.2,1.78l-5.4,3,4.38,1.76-7.95,2.65,6.14-1.9L328,173l2.89-.4-7.53,6.63L328,177.4l-5.35,7,5.4-3.34-3.2,4.4s-6,10.61-6.73,12.43-3.07,14.93-3.07,14.93,5-6.24,5.71-7.34,2.84-4.76,2.84-4.76l.31-4,1.86,3.24s-.11-8.35.23-9.81,4.08,6.48,4.08,6.48l-.11-8,3.73,7.22-.47-8,2.62,6.14-.11-8.35,3.35,6.13-.12-8.71,2.27,6.14.24-9.08,3.72,7.21-1.2-8.7,2.59,3.6-1.2-7.61,4.07,5-.48-8.71,4.78,5-.09-6.9,7.42-15,7.23-2.27-7.91,5.55,6.86-3-3.21,4.4-1.39,4.38L358,166.82l2.9-.4-3.17,7.67-.47.69-2,3,2.54-.4-5,8.79,9.39-4.12L355,187.56l2.19,1.06-3.93,4.77,8.31-3-7.54,5.92,2.53-1.13-2.82,6.58,3.27.32-4.3,4.05,3.25-1.5-2.49,4-4.29,4.78,2.91.32-1.35,7.64,3.56-5.13,3,4-.08-5.81,1.49,2.88-.06-4.35,3.69,4.3-1.21-9.06,2.46,4.76,1.27,2.45-1.27-13,3.38,8.3L366.45,199l1.53,5.79-.11-8.71,3,9.76.24-9.44-.52-4.45-.71-6.07s4.1,7.94,4.08,6.49c0-.6,0-2.91.06-5.43.05-3.61.12-7.65.12-7.65l1.63-5.16c-.35,13.31-2.88,48.15-4.68,58.27-2,11.14-3.8,35.09-3.8,35.09l-5,68.29q3.59-.06,7-.07c2-31.18,4.45-68.09,4.85-73.87.22-3.07,1-14.08,2-28,.63-1.69,4.33-11.51,6.58-16.18,2.47-5.11,6.06-34.94,6.68-42.93s-2.28-34.1-2.28-34.1l2.55.33s-1.07,1.83.07,5.08l-.33,2.91.41,2.9,4-1.15-2.85,4,4.36.3-2.49,4,4.36.3-3.22,3.31,5.07-.79-5.35,7,5.08-.43-1.06,2.19,4-1.14-4.31,4.05,5.45-.07-3.21,4.4,3.27,0-1.78,2.57,4-.06-2.86,2.95,6.17.28-6.13,3.35,6.21,2.09-2.89,1.49s3.29,1.78,2.21,2.15.41,3.27.41,3.27l6.37,14.8s.28-5.82.94-11.27-3-33-3-33l1.1,5.53.84,4.24.26-7.63,3.42,10.85.26-7.26,1.95,9.41.29-5.45,3.09,13.75,1-6.18,2.27,6.5,1.57,9.06.42-3.48.24-2,3.13,16.66s1-6.18,1.32-9.45-.22-16.34-2.12-22.85-23.65-29.82-23.65-29.82l-9.19-8.59-1.56-8,.66-5.09,1.85,2.51,1.7,5.14.57,1.73-.11-7.62,4.47,7.92,1-8,.44,5.44,1.73-5.83L411,138.14l-.09-6.89,5.88,5-1.18-6.52,5.53,6.1-3.75-8.66,6.23,4.27-2.28-7.6,5.14,4.29L425.32,122l3.6-1.86,1.48,4.23,2.3,6.61.25-8.35,3.75,9-.79-4.71-.47-8,4.84,9-1.16-5.79,7,4.63-4.48-8.66,8,1.71L447,117.32l6.91,1S463,114.2,461.88,114.22Zm-81.63,62.62,2.23-.55-2.38,2.65Q380.17,177.88,380.25,176.84Zm-.48,6.57.63-.19s-.33.62-.72,1.43Zm-.4,5.5a5.37,5.37,0,0,0,1.1-.24l-1.17,1.2C379.32,189.55,379.35,189.23,379.37,188.91Zm-.35,4.86,1.52,0-1.73,2.8ZM376.24,232c.69-9.49,1.46-20.19,2.22-30.58h1.1Zm2.35-32.37c.05-.62.09-1.23.13-1.84l2.24,0Zm1.24-17,.12-1.71,3.67-1Zm3.29-13.2-.62.93-2,3c.62-8.5,1.11-15.15,1.34-18.38l3.47-11s.06,4.36.09,6.17.07,5.81.1,7.62-1.45,0-1.45,0l-.67,4.37L382,165.41l3.63-.41Z" style="fill:#fff"></path><path d="M422.22,81c.42.13-.39.17-1.54.18A4,4,0,0,1,422.22,81Z" style="fill:#fff"></path></g></g><g id="freepik--Floor--inject-15"><path d="M178.32,362.65s7.3,0,15.26.41,24.33-.41,24.33-.41" style="stroke:#263238;stroke-linecap:round;stroke-linejoin:round"></path><path d="M224.91,362.65s19.38,0,24.33-.41" style="stroke:#263238;stroke-linecap:round;stroke-linejoin:round"></path><path d="M65.77,365.49a40.71,40.71,0,0,1,12,.41" style="fill:none;stroke:#263238;stroke-linecap:round;stroke-linejoin:round"></path><path d="M277.69,364.68s22.68-1.22,29.68-.41" style="fill:none;stroke:#263238;stroke-linecap:round;stroke-linejoin:round"></path><path d="M339.85,360.13s5.87-2.36,15.35-.33a70.6,70.6,0,0,0,16.91,1.63" style="fill:none;stroke:#263238;stroke-linecap:round;stroke-linejoin:round"></path><path d="M161.32,380c5.86.45,9.68.45,9.68.45" style="fill:none;stroke:#263238;stroke-linecap:round;stroke-linejoin:round"></path><path d="M62.81,375c1.33-.17,2.59-.38,3.76-.62,16.81-3.43,47.79-4.28,66.37.86a142.63,142.63,0,0,0,20.3,3.9" style="fill:none;stroke:#263238;stroke-linecap:round;stroke-linejoin:round"></path><path d="M37.16,375.78c6.62.21,13.82.23,20.18-.22" style="fill:none;stroke:#263238;stroke-linecap:round;stroke-linejoin:round"></path><path d="M376.2,384.53a138.41,138.41,0,0,1-15.81,1c-15,0-30.09-1.71-38.94,1.71s-26.55,3.43-26.55,3.43" style="fill:none;stroke:#263238;stroke-linecap:round;stroke-linejoin:round"></path><path d="M391.37,382.11s-3,.65-7.63,1.38" style="fill:none;stroke:#263238;stroke-linecap:round;stroke-linejoin:round"></path><path d="M259,382.93c11.11,2,38-.82,41.24-.82" style="fill:none;stroke:#263238;stroke-linecap:round;stroke-linejoin:round"></path><path d="M221.45,382.11s23.27-3,32.77-.57" style="fill:none;stroke:#263238;stroke-linecap:round;stroke-linejoin:round"></path><path d="M446.24,353.84H431.19a164.29,164.29,0,0,0-17.61,1.44" style="fill:none;stroke:#263238;stroke-linecap:round;stroke-linejoin:round"></path><path d="M418.8,345.27s-14.16-1.71-22.12,0A86.42,86.42,0,0,1,380.75,347" style="fill:none;stroke:#263238;stroke-linecap:round;stroke-linejoin:round"></path><path d="M20,346.15l1.4.17c26.06,3.27,47.95,1.27,86.81,2.38,34,1,128.33-12.86,155.77-11.14s85-2.57,115.93-1.72c29.37.82,73.83,7,81.4,7.66" style="fill:none;stroke:#263238;stroke-linecap:round;stroke-linejoin:round"></path><path d="M147.58,361.84a39,39,0,0,0,8.37-2" style="fill:none;stroke:#263238;stroke-linecap:round;stroke-linejoin:round"></path><path d="M99.31,359.84a160.36,160.36,0,0,1,31,1.71,56.64,56.64,0,0,0,9.56.82" style="fill:none;stroke:#263238;stroke-linecap:round;stroke-linejoin:round"></path><path d="M82.57,396.37c3.6.19,7.1.31,10.55.31" style="fill:none;stroke:#263238;stroke-linecap:round;stroke-linejoin:round"></path><path d="M43.88,394.19c12.73.28,23.4,1.21,33.14,1.85" style="fill:none;stroke:#263238;stroke-linecap:round;stroke-linejoin:round"></path></g><g id="freepik--Character--inject-15"><path d="M218.83,213.47s3.17,3.16,8.31-1.19,6.14-5.74,6.14-5.74l-12.67-11.08a21,21,0,0,0-4,9.3C215.47,210.89,218.83,213.47,218.83,213.47Z" style="fill:#fff;stroke:#263238;stroke-linecap:round;stroke-linejoin:round"></path><path d="M223.19,135.09c-14.06-8.71-25.74-2.65-25.74-2.65-12.67,5.26-23.94,20.26-23.94,20.26s4-.79,10.49.8,17,17.41,19.59,26.32-2.37,24-2.37,24c2.94-1.31,7.9-6.87,10.7-1.83s6.91,11.53,6.91,11.53a13.48,13.48,0,0,1-1.19-4.56c-.39-3.16,6.34-19.79,12.08-32.26S237.24,143.8,223.19,135.09Z" style="fill:#fff;stroke:#263238;stroke-linecap:round;stroke-linejoin:round"></path><path d="M208.21,145.93c-6.46-5.47-15.81-5.88-23.9-4.77a85.75,85.75,0,0,0-6.33,6.26,44.36,44.36,0,0,1,14-1.14c12,1.06,17.28,8.46,17.59,22,.2,8.79-3.57,20.11-6.23,27-.48,2.53-1,4.74-1.46,6.29l2.24.45a21.4,21.4,0,0,1,2.07-1.28,58.25,58.25,0,0,1,2.37-12.79C210.8,181,222,157.57,208.21,145.93Z" style="fill:#263238;stroke:#263238;stroke-linecap:round;stroke-linejoin:round"></path><path d="M223.19,135.09c-14.06-8.71-25.74-2.65-25.74-2.65a39.77,39.77,0,0,0-7.73,4.4c3.58-1.05,17.18-4.44,26.6,1.33,10.94,6.7,11.29,19.75,9.17,32.09-1.64,9.59-9.25,22.8-12.72,33.18,2.71,4.74,6.06,10,6.06,10a13.48,13.48,0,0,1-1.19-4.56c-.39-3.16,6.34-19.79,12.08-32.26S237.24,143.8,223.19,135.09Z" style="fill:#263238;stroke:#263238;stroke-linecap:round;stroke-linejoin:round"></path><path d="M233.28,206.54l-4.51-3.95c-5.7,6.24-10,6.51-12.29,5.92a7.44,7.44,0,0,0,2.35,5s3.17,3.16,8.31-1.19S233.28,206.54,233.28,206.54Z" style="fill:#263238;stroke:#263238;stroke-linecap:round;stroke-linejoin:round"></path><path d="M262.25,339l-31.34,12.93s-2.85,16.66-3.07,25.43a35.33,35.33,0,0,0,2.41,14.47s16.43-13.11,31.34-27.19c6.42-6.05,21.68-19.73,21.68-19.73S269.27,335.67,262.25,339Z" style="fill:#fff;stroke:#263238;stroke-linecap:round;stroke-linejoin:round"></path><path d="M241.87,424.22c-8-14-12.42-34.67-10.87-44.51s5.69-30.27,5.69-30.27,5.18-3.11,10.09-11.39S253,324.34,247,306s-11.13-39.07-12.94-42.69-7.06-14.44-14.49-15.53c-10.61-1.55-15.52,3.37-19.41,3.11-2.69-.18-8.79-2.33-10.09-5.95s-3.36-20.19-3.36-20.19-2.07,3.11-10.87-3.1-21.22-16.82-26.14-20.19-10.6,1.3-10.6,1.3,14.75,47.35,11.9,48.9-27.17-2.84-35.45-1.55-1.55,39.59,7.5,63.4,8.8,70.9,7.51,83.06-12.94,25.62-17.86,42.7a185.92,185.92,0,0,0-5.27,26.08c27.52,9.72,58.32,7.77,88.89-3.88,20.46-7.8,37.26-13.59,53.24-17.43C247.29,436.4,244.62,429,241.87,424.22Z" style="fill:#fff;stroke:#263238;stroke-linecap:round;stroke-linejoin:round"></path><polygon points="171.07 224.94 187.86 238.13 186.66 227.94 171.07 224.94" style="fill:#263238;stroke:#263238;stroke-linecap:round;stroke-linejoin:round"></polygon><path d="M205.52,257.13s-8.7,6-16.49,6.41" style="fill:none;stroke:#263238;stroke-linecap:round;stroke-linejoin:round"></path><path d="M159.7,261.71s13.29,1.83,16,2.29" style="fill:none;stroke:#263238;stroke-linecap:round;stroke-linejoin:round"></path><path d="M200.94,296.54a35.41,35.41,0,0,1,6.42,17.87" style="fill:none;stroke:#263238;stroke-linecap:round;stroke-linejoin:round"></path><path d="M146.38,250.07s17.6,26.4,18.37,30.79-9.83,30.8-11.38,40.11a43.15,43.15,0,0,0,.26,16.31s-5.44,3.1-8.8,3.62l-3.37.52V345s11.91.77,14,1.29,8.56,6.17,19.15,7c16.82,1.29,30-5.18,37.26-7s24.84,3.11,24.84,3.11q4.44-3.18,8.9-6.33c6.54-4.62,11.52-8.32,12-16.85.6-9.69-4.67-17.56-11.22-24.16A198.12,198.12,0,0,0,223,281.64c-2.85-2.07-26.14-32.09-26.14-32.09l-2.59-.51s11.65,15,15,20.44,11.65,16,12.42,17.85-2.59,16.05-6,20.45-9.83,6-11.9,5.17-8.8-8-22.52-19.67S151,251.62,151,251.62,147.93,247.74,146.38,250.07Z" style="fill:#263238;stroke:#263238;stroke-linecap:round;stroke-linejoin:round"></path><path d="M79.94,207.55s4.9,17.59,20.14,22.54,34.24,0,34.24,0L129,209.71S96.22,214.69,79.94,207.55Z" style="fill:#fff;stroke:#263238;stroke-linecap:round;stroke-linejoin:round"></path><path d="M124.29,225.27S112,228.8,100,223.15c-5.69-2.67-9.7-8.2-12.36-13.28a39.1,39.1,0,0,1-7.66-2.32s4.9,17.59,20.14,22.54c9.35,3,20.11,2.35,27,1.36Z" style="fill:#263238;stroke:#263238;stroke-linecap:round;stroke-linejoin:round"></path><path d="M177.51,149.74s10.88-4.39,17.18.38,7.64,14.51,9.17,21.58,3.24,17.18,2.48,23.1-7.26,28.06-8.59,30.55-5.92,4-11.08,4.58-19.85-6.49-25-9-10.5-8-11.45-9.73a33.25,33.25,0,0,0-4-4.78s7.63-12.41,13-23.86,7.64-23.87,11.26-30.17S177.51,149.74,177.51,149.74Z" style="fill:#fff;stroke:#263238;stroke-linecap:round;stroke-linejoin:round"></path><path d="M192.61,167.47s4.64-5,9.12-3.31a3.37,3.37,0,0,0-2.32-2.66c-2-.5-7.3,1.5-8,2.82A2.37,2.37,0,0,0,192.61,167.47Z" style="fill:#263238;stroke:#263238;stroke-linecap:round;stroke-linejoin:round"></path><path d="M180.44,172.19s-8.38-2.53-14.47,1.17c0,0-.17-2.21,2.61-3.63s11.22-2,12.6-1.09S181.75,171.24,180.44,172.19Z" style="fill:#263238;stroke:#263238;stroke-linecap:round;stroke-linejoin:round"></path><path d="M165.66,172a50.92,50.92,0,0,1,6.07-.33c5.12,0,11.87,1.58,16.66-.52,3.05-1.33,10.12-4.77,15.47-5.53s6.87-1.15,7.63-.77,1,.58.57,1.53l-.38,1s1.53,10.7.77,13.94-2.49,5.92-6.3,6.88-9.36.19-10.89-1-4.77-9.35-5.34-10.31-3.63-.57-4.58,1.15c-1.22,2.18-.73,5.8-1.06,8.22-.66,4.7-3.1,7.54-7.79,8.58-6.32,1.4-15.46,1.59-18.08-5.73-.95-2.67-1.33-10.5-1.52-11.07s-1.91-.77-.58-2.1C158.75,173.45,162.17,172.41,165.66,172Z" style="fill:#fff;stroke:#263238;stroke-linecap:round;stroke-linejoin:round"></path><path d="M182.2,175.45s.08,8.66-1.26,11.9-5.15,5.16-11.07,5.35-9-4.2-9.93-8a23.08,23.08,0,0,1-.57-7.26S171.51,172,182.2,175.45Z" style="fill:#263238;stroke:#263238;stroke-linecap:round;stroke-linejoin:round"></path><path d="M192.78,173.6s2.67,9.36,4.77,11.08,8,.95,9.93,0,3-3.4,3.23-6.65-1.13-9.77-1.13-9.77S199.08,169,192.78,173.6Z" style="fill:#263238;stroke:#263238;stroke-linecap:round;stroke-linejoin:round"></path><path d="M196.92,192.36a4.52,4.52,0,0,1,.66,4.15c-.83,2.32-4.31,1.82-4.64,3.31" style="fill:none;stroke:#263238;stroke-linecap:round;stroke-linejoin:round"></path><path d="M196.92,207.79s-3,.66-7.3,1.49a17.53,17.53,0,0,1-9.29-.5l-2-.66" style="fill:none;stroke:#263238;stroke-linecap:round;stroke-linejoin:round"></path><line x1="179.5" y1="206.96" x2="177.18" y2="209.11" style="fill:none;stroke:#263238;stroke-linecap:round;stroke-linejoin:round"></line><path d="M180.33,208.78a51.87,51.87,0,0,0,6.64,3.15c2.15.67,4.31,1.17,5.47.17s-.33-3-.33-3-5.47,1.16-6.8,1A47.68,47.68,0,0,1,180.33,208.78Z" style="fill:#fff;stroke:#263238;stroke-linecap:round;stroke-linejoin:round"></path><path d="M262.13,348.07s3.69-5.29,4.65-5.93,5.12,1.44,5.28,2.56,6.25,6.57,7.21,6.73,4-6.56,4-6.56,8.49,1.28,9,1.28,2.56-3,3-4,5.77-5.76,8.49-7,6.25-5,6.89-6.73,4-7.37,5.92-9.13,4-2.24,3-4.48-3-2.4-7.2.32-8.17,11.53-10.57,12.65-23.06,7.21-26.26,6.73-14.26-1-14.26-1Z" style="fill:#fff;stroke:#263238;stroke-linecap:round;stroke-linejoin:round"></path><path d="M315.09,291.63a63.36,63.36,0,0,0-6.92-19.33c-2.42-4.32-6.93-8.29-12.23-8.31a29.27,29.27,0,0,0-15.46,4.22,44.42,44.42,0,0,1-13.24,4.41c-9.31,1.88-18.74,5-25.64,11.55-3.29,3.12-4.5,4.69-5.4,9.14a41.62,41.62,0,0,0,1,16.44c3.11,9.73,8.26,17.35,17,22.57a45.84,45.84,0,0,0,33.42,5c8.9-2.08,18.09-7.57,23-15.47C316.08,313.05,317,302.08,315.09,291.63Z" style="fill:#0099FF;stroke:#263238;stroke-linecap:round;stroke-linejoin:round"></path><path d="M282.84,273c5.3-4.58,11.83-7.54,20.61-6.2a12.37,12.37,0,0,0-7.51-2.78,29.27,29.27,0,0,0-15.46,4.22,44.42,44.42,0,0,1-13.24,4.41c-9.31,1.88-18.74,5-25.64,11.55l-.74.71c3.34-1.48,9.87-4.09,15.25-4.5C263.68,279.81,276.44,278.5,282.84,273Z" style="fill:#fff;stroke:#263238;stroke-linecap:round;stroke-linejoin:round"></path><path d="M282.9,274.73s-3.68-8.11-5.67-9.64-11-.14-11.85,5.54c-.58,3.82,11.48,6.15,11.48,6.15s-12.84,2-13.81,4.2,3.49,8.32,6.57,8.39,9.36-6.08,9.36-6.08-4.3,9-.87,9.93,12.13-1,13.19-2.62-2.48-8.85-2.48-8.85,4.92,6.26,8.26,5.18,6.3-6,5.78-7.92-10.58-3.16-10.58-3.16,6.87-4.38,6.27-6.15c-1.23-3.69-4.14-5.45-11.13-5.28S282.9,274.73,282.9,274.73Z" style="fill:#fff;stroke:#263238;stroke-linecap:round;stroke-linejoin:round"></path><path d="M286.24,277.91a2.55,2.55,0,1,1-2.77-1.6A2.28,2.28,0,0,1,286.24,277.91Z" style="fill:#0099FF"></path><path d="M232.67,271.35a1.49,1.49,0,0,1-1.23-.64L191.21,213a1.5,1.5,0,1,1,2.46-1.72L233.9,269a1.5,1.5,0,0,1-1.23,2.36Z" style="fill:#0099FF;stroke:#263238;stroke-linecap:round;stroke-linejoin:round"></path><path d="M133.18,283.19l14.49,71.42s23.55-15,30.8-20.44,28.46-23.81,31.05-27.69,7-24.32,7.5-26.91.78-8.8,3.11-11.13,11.13-10.61,11.13-10.61,2.07-.77,2.84,0a38.82,38.82,0,0,1,2.85,4.4s2.59-1.29,3.62,0,3.88,4.92,3.88,4.92a3.18,3.18,0,0,1,3.11,1,29.83,29.83,0,0,0,3.36,2.85s3.37-3.62,4.14-4.66,4.4-3.62,2.33,1.56-9.57,15-10.87,16.82a50.07,50.07,0,0,0-7.76,14,40,40,0,0,1-10.35,15.53c-2.33,2.07-19.92,19.92-27.43,31.56S173.81,380,161.91,387.22s-18.38,11.12-21.22,12.94-5.95,3.1-10.09,1S123.09,395,118.69,382s-16-60.55-21.22-86.68S98.77,256,106,251.11s17.6-1.82,19.93-1.3l4.66,1" style="fill:#fff;stroke:#263238;stroke-linecap:round;stroke-linejoin:round"></path><path d="M113.22,210.88s-1.07,15.76,4.09,21.22,11.74,7.43,11,9.18-11.19,12.91-6.93,19.59,15,13.74,15,13.74-9.49,8.92-6.33,16.27,17.46,12.43,17,14.72-5.7,7.49-1.92,13.85,13.12,6.53,15.26,6,4,4.05,4.19,4.84,4.48-3.18,3.62-10-13-13.28-15.1-15.32,4.9-2.28,5-18.22c0-8.06-9.87-13-11.44-15.46s5-7.82,3.75-13.93-8.25-11-8-13.81,5.2,0,6.53-10.52-9.34-28.52-9.34-28.52Z" style="fill:#263238;stroke:#263238;stroke-linecap:round;stroke-linejoin:round"></path><line x1="147.67" y1="354.61" x2="136.29" y2="361.03" style="fill:none;stroke:#263238;stroke-linecap:round;stroke-linejoin:round"></line><path d="M237,262.23s-6.06,6.65-8.26,8.44-4.12,3.16-4.12,3.16" style="fill:none;stroke:#263238;stroke-linecap:round;stroke-linejoin:round"></path><path d="M244.45,267.15s-6.55,6.54-7.65,7.5-5.09,4-5.09,4" style="fill:none;stroke:#263238;stroke-linecap:round;stroke-linejoin:round"></path><path d="M250.92,271s-5.19,4.59-6.7,6.24-5.77,5.36-5.77,5.36" style="fill:none;stroke:#263238;stroke-linecap:round;stroke-linejoin:round"></path><path d="M280.53,332.44s-2.6,16.68-2.38,18,2,2.6,4.33,1.08,3-15.38,2.38-18.19S282.05,328.11,280.53,332.44Z" style="fill:#fff;stroke:#263238;stroke-linecap:round;stroke-linejoin:round"></path><path d="M294,328.33s-4.55,12.56-4.11,15.81,3.46,3.25,4.54,1.95,3.47-13.65,2.82-18.85S295,326.16,294,328.33Z" style="fill:#fff;stroke:#263238;stroke-linecap:round;stroke-linejoin:round"></path><path d="M263.58,330.61s2.4,17.62,4.48,18.42,4-1.76,4-4.33-3-11.2-3.84-13S263.9,327.73,263.58,330.61Z" style="fill:#fff;stroke:#263238;stroke-linecap:round;stroke-linejoin:round"></path><path d="M258.93,331.41c-.34,1-1,13.46-.64,14.9a3,3,0,0,0,3.84,1.76c1.45-.64,1.93-4,1.61-6.09s-1.29-9.77-1.77-11.05S259.57,329.65,258.93,331.41Z" style="fill:#fff;stroke:#263238;stroke-linecap:round;stroke-linejoin:round"></path><path d="M192.73,421.3c-30,3.34-68.69-11.92-68.69-11.92s-9.54,12.4-11.93,25.28c-1.52,8.2-3.36,21.85-4.5,30.7,27.48,9.66,58.23,7.7,88.75-3.93,21.64-8.25,39.2-14.25,56-18.08-3.49-12.52-14.32-31.59-14.32-31.59S222.78,418,192.73,421.3Z" style="fill:#0099FF;stroke:#263238;stroke-linecap:round;stroke-linejoin:round"></path><path d="M134.23,413.51s-4.06,8.87-4.31,10.4l-.26,1.52-6.08-.26" style="fill:none;stroke:#263238;stroke-linecap:round;stroke-linejoin:round"></path><path d="M143,428.69c3.81.89,8.07,1.85,10.76,2.32" style="fill:none;stroke:#263238;stroke-linecap:round;stroke-linejoin:round"></path><path d="M137.78,415.53l-3,11.17,4.6,1.12" style="fill:none;stroke:#263238;stroke-linecap:round;stroke-linejoin:round"></path><line x1="165.68" y1="422.89" x2="163.15" y2="432.02" style="fill:none;stroke:#263238;stroke-linecap:round;stroke-linejoin:round"></line><path d="M170.5,422.64,168,433s4.05,3.55,13.95,3.29" style="fill:none;stroke:#263238;stroke-linecap:round;stroke-linejoin:round"></path><path d="M190.54,422.38s.25,5.58.76,8.63a31.08,31.08,0,0,1,.51,4.56s.32,11.22.45,18.95" style="fill:none;stroke:#263238;stroke-linecap:round;stroke-linejoin:round"></path><path d="M201.82,445.94c.73,6.18.85,8.75.59,11.11" style="fill:none;stroke:#263238;stroke-linecap:round;stroke-linejoin:round"></path><path d="M200.43,435.07s.32,2.27.73,5.51" style="fill:none;stroke:#263238;stroke-linecap:round;stroke-linejoin:round"></path><path d="M219,417.06s1.78,8.62,1.52,11.16-9.13,4.82-9.13,4.82" style="fill:none;stroke:#263238;stroke-linecap:round;stroke-linejoin:round"></path><path d="M223.52,416.3s3.8,9.89,2.79,11.66-4.57,2-4.57,2" style="fill:none;stroke:#263238;stroke-linecap:round;stroke-linejoin:round"></path><path d="M226.31,428s10.4-5.32,11.67-6.34" style="fill:none;stroke:#263238;stroke-linecap:round;stroke-linejoin:round"></path><path d="M199.93,427.08a3,3,0,1,1-3.05-3.17A3.12,3.12,0,0,1,199.93,427.08Z" style="fill:#fff;stroke:#263238;stroke-linecap:round;stroke-linejoin:round"></path><path d="M122.6,456.89a30.75,30.75,0,0,1-6.63,2.27" style="fill:none;stroke:#263238;stroke-linecap:round;stroke-linejoin:round"></path><path d="M148.18,433.29s-9.18,14-21.89,21.63" style="fill:none;stroke:#263238;stroke-linecap:round;stroke-linejoin:round"></path><path d="M151.22,433.29a65.68,65.68,0,0,1-15.47,17.76" style="fill:none;stroke:#263238;stroke-linecap:round;stroke-linejoin:round"></path><path d="M229.86,429A63.72,63.72,0,0,0,241,443.87" style="fill:none;stroke:#263238;stroke-linecap:round;stroke-linejoin:round"></path><path d="M227.07,430.5s6.59,10.91,11.67,15.47" style="fill:none;stroke:#263238;stroke-linecap:round;stroke-linejoin:round"></path><path d="M115.07,189s-7.25-45-6.73-49.94,13.2-16,24.59-22.77,28.2-6,31-4.66,26.91,31.57,26.91,31.57Z" style="fill:#fff;stroke:#263238;stroke-linecap:round;stroke-linejoin:round"></path><path d="M113.05,176.12c1.13,7.37,2,12.88,2,12.88l75.82-45.8s-3.24-4.08-7.48-9.3A227.07,227.07,0,0,0,113.05,176.12Z" style="fill:#263238;stroke:#263238;stroke-linecap:round;stroke-linejoin:round"></path><path d="M171.85,120c-10.44,1.5-36.93,7.74-62.12,33.32.51,3.76,1.09,7.9,1.69,12a151.56,151.56,0,0,1,65.69-39.07C175.31,124,173.51,121.91,171.85,120Z" style="fill:#263238;stroke:#263238;stroke-linecap:round;stroke-linejoin:round"></path><path d="M114.51,130.3a211.24,211.24,0,0,1,35-19.13c-5.47.65-11.54,2.15-16.55,5.12A101.14,101.14,0,0,0,114.51,130.3Z" style="fill:#263238;stroke:#263238;stroke-linecap:round;stroke-linejoin:round"></path><path d="M79.94,207.55s14.3,15.5,49.43,8.48,42.94-55,49.48-65.89,18.6-17.7,18.6-17.7a351.48,351.48,0,0,0-51.85,31.25C118.22,183.56,79.94,207.55,79.94,207.55Z" style="fill:#fff;stroke:#263238;stroke-linecap:round;stroke-linejoin:round"></path><path d="M173.51,152.7c-5.44,13.13-21.36,52.12-47.1,57.41a55.76,55.76,0,0,1-40.27-6.49c-3.88,2.48-6.2,3.93-6.2,3.93s14.3,15.5,49.43,8.48,42.94-55,49.48-65.89,18.6-17.7,18.6-17.7-6.19,2.88-15.82,8.26A41.12,41.12,0,0,0,173.51,152.7Z" style="fill:#263238;stroke:#263238;stroke-linecap:round;stroke-linejoin:round"></path><path d="M162.37,160a74.92,74.92,0,0,1,8.47-13q-2.1,1.26-4.3,2.63c-4.25,4-9,9-11.92,13.94-6.35,10.58-17.28,24-30.68,28.56-7.26,2.48-14.2,1.14-19-.61l-7.14,4.65c5.89,2.38,17.27,5.73,29,2.31C143.68,193.53,156,172.38,162.37,160Z" style="fill:#263238;stroke:#263238;stroke-linecap:round;stroke-linejoin:round"></path><path d="M134.52,177.31a62.44,62.44,0,0,0,11.08-13.62c-7.77,5.64-16.42,11.61-24.82,17.27C124.05,181.39,129.94,181.41,134.52,177.31Z" style="fill:#263238;stroke:#263238;stroke-linecap:round;stroke-linejoin:round"></path></g></svg>
