<svg t="1685695073583" class="icon" viewBox="0 0 1024 1024" version="1.1" xmlns="http://www.w3.org/2000/svg" p-id="11393" id="mx_n_1685695073585" width="200" height="200"><path d="M710.044978 938.026987l-183.716142-100.30185v-1.535232-1.535232-1.535233-1.535232l183.716142 100.301849v6.14093" fill="#1B3550" p-id="11394"></path><path d="M710.556722 932.397801l-183.716142-100.301849 6.652673-222.096952 186.786607 88.531735z" fill="#1A334D" p-id="11395"></path><path d="M720.27986 698.530735l-186.786607-89.043479c0-5.629185-0.511744-11.258371-1.535232-16.375812s-2.558721-9.723138-5.117441-14.328835c-2.046977-4.093953-5.117441-8.187906-8.187906-11.258371-3.070465-3.070465-6.652674-5.629185-10.746627-7.676162l186.786607 86.484758c4.093953 2.046977 7.676162 4.605697 10.746626 7.676162s6.14093 7.164418 8.187906 11.770114c2.046977 4.605697 4.093953 9.211394 5.117442 14.84058 1.535232 6.14093 2.046977 11.770115 1.535232 17.911045" fill="#1B3550" p-id="11396"></path><path d="M953.635182 519.42029l-195.486256-77.273363-297.323339-327.516242 190.368816 61.921039z" fill="#1A334D" p-id="11397"></path><path d="M618.442779 237.961019l-189.345328-66.014992v-0.511744s0-0.511744 0.511744-0.511744l0.511745-0.511744 189.345327 65.503248-0.511744 0.511744c0 0.511744 0 0.511744-0.511744 1.535232 0.511744-0.511744 0.511744-0.511744 0 0" fill="#1F3D5C" p-id="11398"></path><path d="M619.466267 236.425787L430.12094 170.410795s0-0.511744 0.511744-0.511745 0-0.511744 0.511744-0.511744l0.511744-0.511744 0.511744-0.511744 188.833583 65.503248-0.511744 0.511745-0.511744 0.511744c0.511744 0.511744 0 1.023488-0.511744 1.535232 0.511744-0.511744 0.511744-0.511744 0 0" fill="#203F5F" p-id="11399"></path><path d="M621.513243 234.378811L431.656172 168.875562l0.511744-0.511744 0.511744-0.511744 0.511744-0.511744 0.511744-0.511744 188.833584 65.503248-0.511744 0.511744-0.511745 0.511744c0.511744 0 0.511744 0.511744 0 1.023489 0-0.511744 0 0 0 0" fill="#214162" p-id="11400"></path><path d="M623.56022 232.331834l-189.345327-65.503248c0.511744-0.511744 1.023488-0.511744 1.535232-1.023489 0.511744-0.511744 1.023488-0.511744 2.046976-1.023488 0.511744-0.511744 1.535232-0.511744 2.046977-0.511744s1.535232-0.511744 2.046976-0.511744h2.046977l189.857071 65.503248h-2.046976c-1.023488 0-1.535232 0-2.558721 0.511744-0.511744 0-1.535232 0.511744-2.046976 0.511745-0.511744 0.511744-1.535232 0.511744-2.046977 1.023488-0.511744 0.511744-1.023488 0.511744-1.535232 1.023488" fill="#224365" p-id="11401"></path><path d="M633.795102 229.261369l-189.345327-64.991504h2.046977l189.345327 64.991504h-2.046977c0.511744 0 0.511744 0 0 0" fill="#214162" p-id="11402"></path><path d="M651.194403 176.551724L460.825587 114.630685l-1.535232-1.535233-1.535233-1.535232-1.535232-1.535232c-0.511744-0.511744-1.023488-1.023488-1.535232-1.023489L645.053473 170.922539l1.535233 1.535232 1.535232 1.535232 1.535232 1.535233c0.511744 0 1.023488 0.511744 1.535233 1.023488" fill="#1B3550" p-id="11403"></path><path d="M645.053473 170.922539L454.684658 109.001499l-1.535233-1.535232c-0.511744-0.511744-1.023488-1.023488-1.535232-1.023488-0.511744-0.511744-1.023488-0.511744-1.535232-1.023489-1.023488-0.511744-1.535232-0.511744-2.046977-0.511744l190.368816 61.92104c0.511744 0 1.023488 0.511744 1.535232 0.511744 0.511744 0.511744 1.023488 0.511744 1.535232 1.023488 0.511744 0.511744 1.023488 1.023488 1.535233 1.023488 1.023488 0.511744 1.535232 1.023488 2.046976 1.535233" fill="#1B3550" p-id="11404"></path><path d="M471.572214 4.605697c63.968016 18.934533 128.447776 36.845577 192.415792 55.78011-2.046977-0.511744-4.093953-1.023488-6.652674-1.535232-2.046977-0.511744-4.605697-0.511744-6.652673-1.023489-2.046977 0-4.605697-0.511744-6.652674-0.511744s-4.605697 0-6.652674 0.511744c-5.629185 0.511744-11.770115 1.535232-17.3993 3.582209-5.629185 2.046977-11.770115 4.093953-17.3993 7.676162-5.629185 3.070465-11.258371 7.164418-16.375812 11.258371-5.117441 4.605697-10.234883 9.723138-14.84058 15.352324l-189.345327-58.338831c4.605697-5.629185 9.211394-10.234883 14.328835-14.328835 5.117441-4.093953 10.234883-7.676162 15.864068-10.746627 5.629185-3.070465 10.746627-5.117441 16.887556-7.164418C434.726637 3.582209 440.355822 2.558721 445.985007 2.046977h6.652674c2.046977 0 4.605697 0 6.652674 0.511744 2.046977 0 4.093953 0.511744 6.652673 1.023488 1.535232 0 3.582209 0.511744 5.629186 1.023488z" fill="#5B90BC" p-id="11405"></path><path d="M571.362319 95.696152L382.528736 37.357321c0.511744-1.023488 1.535232-1.535232 2.046976-2.55872 0.511744-1.023488 1.535232-1.535232 2.046977-2.046977l2.046976-2.046976 2.046977-2.046977 189.345327 57.827087-2.046976 2.046976c-0.511744 0.511744-1.535232 1.535232-2.046977 2.558721-0.511744 1.023488-1.535232 1.535232-2.046977 2.55872-1.535232 0-2.046977 1.023488-2.55872 2.046977M579.550225 85.973013L390.716642 28.145927l3.070464-3.070465c1.023488-1.023488 2.046977-2.046977 3.070465-2.55872 1.023488-1.023488 2.046977-1.535232 3.070465-2.558721 1.023488-1.023488 2.046977-1.535232 3.070465-2.558721l189.857071 56.803599c-1.023488 1.023488-2.046977 1.535232-3.582209 2.55872-1.023488 1.023488-2.046977 1.535232-3.070464 2.558721l-3.070465 3.070465-3.582209 3.582208" fill="#5B90BC" p-id="11406"></path><path d="M592.855572 74.714643L402.998501 17.911044c3.582209-2.558721 6.652674-4.605697 10.234882-6.140929 3.582209-2.046977 7.164418-3.582209 10.746627-4.605697 3.582209-1.535232 7.164418-2.558721 10.746627-3.070465 3.582209-1.023488 7.164418-1.535232 11.25837-1.535232h9.211395c1.535232 0 3.070465 0 4.605697 0.511744 1.535232 0 3.070465 0.511744 4.605697 0.511744l191.904048 55.78011c-1.535232 0-3.070465-0.511744-4.605697-0.511744s-3.070465 0-4.605697-0.511744h-9.211395c-3.582209 0.511744-7.676162 1.023488-11.25837 2.046976-3.582209 1.023488-7.676162 2.046977-11.258371 3.582209-3.582209 1.535232-7.676162 3.070465-11.258371 5.117441-4.093953 1.023488-7.676162 3.070465-11.258371 5.629186M655.288356 58.338831L463.384308 2.558721c0.511744 0 1.535232 0 2.046976 0.511744 0.511744 0 1.023488 0 2.046977 0.511744 0.511744 0 1.535232 0.511744 2.046976 0.511744s1.535232 0.511744 2.046977 0.511744l192.415792 55.78011c-0.511744 0-1.535232-0.511744-2.046977-0.511744s-1.535232-0.511744-2.046976-0.511744-1.535232-0.511744-2.046977-0.511744c-1.023488-0.511744-2.046977-0.511744-2.55872-0.511744" fill="#5B90BC" p-id="11407"></path><path d="M327.772114 619.722139l-174.504748-89.555222 275.830085-358.22089 189.345328 66.014992z" fill="#1B3651" p-id="11408"></path><path d="M303.72014 651.962019l-173.481259-92.113943 23.028485-29.681159L327.772114 619.722139z" fill="#1B3650" p-id="11409"></path><path d="M888.643678 532.725637l18.422789 23.028486-18.422789 344.915542c-0.511744 0-2.046977 0.511744-4.605697 1.023488s-6.14093 1.535232-10.746627 2.558721c-4.605697 1.023488-9.723138 2.046977-15.864068 3.582209-6.14093 1.535232-12.793603 2.558721-19.446277 4.093953l-127.936031 26.610695v-1.535233-1.535232-1.535233-1.535232l10.234882-234.37881c0.511744-8.69965-0.511744-16.375812-3.070465-23.54023-2.046977-7.164418-5.629185-13.305347-9.723138-17.911045-4.093953-5.117441-9.211394-8.69965-15.352324-10.746627-5.629185-2.046977-12.281859-3.070465-18.934533-1.535232l-115.654173 19.446277c-7.164418 1.023488-13.817091 4.093953-19.958021 8.187906-6.14093 4.093953-11.770115 9.723138-16.887556 16.375812s-8.69965 14.328836-11.770115 22.516742-4.605697 16.887556-4.605697 25.587206l-7.164418 240.007996v6.14093l-142.264867 29.681159c-8.187906 1.535232-15.864068 3.070465-22.516742 4.605697-6.652674 1.535232-13.305347 2.558721-18.422789 3.582209-5.117441 1.023488-9.723138 2.046977-12.793603 2.558721-3.070465 0.511744-5.117441 1.023488-5.117441 1.023488l6.652674-371.014493 24.051974-31.728136 290.670664-382.272863s0.511744-0.511744 1.023489-1.535233l2.55872-2.55872c1.023488-1.023488 2.558721-2.046977 4.093953-3.070465 1.535232-1.023488 3.582209-1.535232 5.629186-1.535232 2.046977 0 3.582209 0 5.117441 0.511744s2.558721 1.023488 4.093953 2.046976c1.023488 0.511744 2.046977 1.535232 2.558721 2.046977l1.023488 1.023488 245.125437 296.811594z" fill="#336699" p-id="11410"></path><path d="M297.067466 1022.976512l-169.89905-111.048476 3.070465-352.07996 173.481259 92.113943z" fill="#427AA8" p-id="11411"></path><path d="M221.329335 618.186907L50.406797 527.608196c-4.093953-2.046977-8.187906-5.117441-12.281859-7.676162-4.093953-3.070465-7.676162-6.14093-10.746627-9.723138-3.582209-3.582209-6.652674-7.164418-9.723139-11.258371-2.558721-3.582209-5.117441-7.676162-7.164417-12.281859l169.387306 89.043478c2.558721 4.605697 5.117441 9.211394 8.187906 13.817091 3.070465 4.093953 6.14093 8.187906 9.723138 11.770115 3.582209 3.582209 7.164418 7.164418 11.258371 10.234883 4.093953 1.535232 8.187906 4.093953 12.281859 6.652674" fill="#1B3550" p-id="11412"></path><path d="M699.298351 83.926037l314.722639 368.967516c-3.582209 7.676162-7.164418 14.328836-11.770115 20.981509-4.605697 6.652674-9.211394 12.793603-14.328836 18.422789-5.117441 5.629185-10.746627 10.746627-16.887556 15.352324-6.14093 4.605697-12.281859 8.187906-18.934533 11.258371l-301.929035-342.868566-1.535233-1.535232-1.535232-1.535233-1.535233-1.535232-1.535232-1.535233c-1.023488-1.023488-2.046977-1.535232-3.070465-2.55872l-3.070465-1.535233c-1.023488-0.511744-2.046977-0.511744-2.55872-1.023488h-3.070465c-1.023488 0-2.558721 0.511744-3.582209 0.511744l-3.070465 1.535233c-1.023488 0.511744-2.046977 1.535232-3.070464 2.046976l-3.070465 3.070465-1.535233 1.535232-1.535232 1.535233c-0.511744 0.511744-1.023488 1.023488-1.535232 2.046976-0.511744 0.511744-1.023488 1.535232-1.535233 2.046977l-363.850075 448.7996c-7.676162-1.023488-15.352324-3.070465-22.004997-6.14093-7.164418-3.070465-13.817091-6.652674-19.446277-11.25837-6.14093-4.605697-11.770115-9.723138-16.375812-15.864068-5.117441-6.14093-9.211394-12.793603-12.793603-19.958021l390.972513-479.504248c4.605697-5.629185 9.723138-10.746627 14.84058-15.352324 5.117441-4.605697 10.746627-8.187906 16.375812-11.258371 5.629185-3.070465 11.258371-5.629185 17.399301-7.676162 5.629185-2.046977 11.770115-3.070465 17.3993-3.582209 5.629185-0.511744 11.770115-0.511744 17.3993 0.511744s11.258371 2.558721 16.375812 4.605698 10.746627 5.117441 15.352324 8.69965c6.14093 3.582209 10.746627 7.676162 14.328836 12.793603z" fill="#336699" p-id="11413"></path><path d="M179.878061 575.2004L10.490755 486.156922 382.528736 37.357321l188.833583 58.338831z" fill="#5B90BC" p-id="11414"></path></svg>