<svg xmlns="http://www.w3.org/2000/svg" viewBox="0 0 1440 320"><path fill="#0099ff" fill-opacity="1" d="M0,32L24,42.7C48,53,96,75,144,69.3C192,64,240,32,288,37.3C336,43,384,85,432,117.3C480,149,528,171,576,170.7C624,171,672,149,720,138.7C768,128,816,128,864,144C912,160,960,192,1008,224C1056,256,1104,288,1152,266.7C1200,245,1248,171,1296,144C1344,117,1392,139,1416,149.3L1440,160L1440,320L1416,320C1392,320,1344,320,1296,320C1248,320,1200,320,1152,320C1104,320,1056,320,1008,320C960,320,912,320,864,320C816,320,768,320,720,320C672,320,624,320,576,320C528,320,480,320,432,320C384,320,336,320,288,320C240,320,192,320,144,320C96,320,48,320,24,320L0,320Z"></path></svg>